<?xml version="1.0" encoding="UTF-8"?>
<svg viewBox="0 0 800 600" xmlns="http://www.w3.org/2000/svg">
  <!-- Background -->
  <rect width="800" height="600" fill="#f8f9fa" />
  
  <!-- Title -->
  <text x="400" y="40" font-family="Arial, sans-serif" font-size="24" font-weight="bold" text-anchor="middle" fill="#2c3e50">PropertyAssistAI System Architecture</text>
  
  <!-- User Interfaces -->
  <rect x="50" y="100" width="160" height="100" rx="10" fill="#3498db" opacity="0.8" />
  <text x="130" y="145" font-family="Arial, sans-serif" font-size="16" font-weight="bold" text-anchor="middle" fill="white">User Interfaces</text>
  <text x="130" y="170" font-family="Arial, sans-serif" font-size="12" text-anchor="middle" fill="white">Web Widget</text>
  <text x="130" y="190" font-family="Arial, sans-serif" font-size="12" text-anchor="middle" fill="white">WhatsApp / Voice</text>
  
  <!-- API Gateway -->
  <rect x="310" y="100" width="180" height="80" rx="10" fill="#2ecc71" opacity="0.8" />
  <text x="400" y="140" font-family="Arial, sans-serif" font-size="16" font-weight="bold" text-anchor="middle" fill="white">API Gateway</text>
  <text x="400" y="160" font-family="Arial, sans-serif" font-size="12" text-anchor="middle" fill="white">FastAPI (Async)</text>
  
  <!-- Core AI Service -->
  <rect x="270" y="230" width="260" height="130" rx="10" fill="#9b59b6" opacity="0.8" />
  <text x="400" y="260" font-family="Arial, sans-serif" font-size="16" font-weight="bold" text-anchor="middle" fill="white">Core AI Service</text>
  <rect x="290" y="280" width="100" height="60" rx="5" fill="#8e44ad" opacity="0.9" />
  <text x="340" y="310" font-family="Arial, sans-serif" font-size="12" text-anchor="middle" fill="white">LLM Client</text>
  <text x="340" y="325" font-family="Arial, sans-serif" font-size="10" text-anchor="middle" fill="white">GPT-4</text>
  <rect x="410" y="280" width="100" height="60" rx="5" fill="#8e44ad" opacity="0.9" />
  <text x="460" y="310" font-family="Arial, sans-serif" font-size="12" text-anchor="middle" fill="white">RAG Engine</text>
  <text x="460" y="325" font-family="Arial, sans-serif" font-size="10" text-anchor="middle" fill="white">LangChain</text>
  
  <!-- Integrations -->
  <rect x="600" y="100" width="150" height="130" rx="10" fill="#e74c3c" opacity="0.8" />
  <text x="675" y="130" font-family="Arial, sans-serif" font-size="16" font-weight="bold" text-anchor="middle" fill="white">Integrations</text>
  <rect x="620" y="150" width="110" height="30" rx="5" fill="#c0392b" opacity="0.9" />
  <text x="675" y="170" font-family="Arial, sans-serif" font-size="12" text-anchor="middle" fill="white">SalesForce</text>
  <rect x="620" y="190" width="110" height="30" rx="5" fill="#c0392b" opacity="0.9" />
  <text x="675" y="210" font-family="Arial, sans-serif" font-size="12" text-anchor="middle" fill="white">Webhook API</text>
  
  <!-- Vector Database -->
  <rect x="50" y="280" width="160" height="80" rx="10" fill="#f1c40f" opacity="0.8" />
  <text x="130" y="315" font-family="Arial, sans-serif" font-size="16" font-weight="bold" text-anchor="middle" fill="white">Vector Database</text>
  <text x="130" y="335" font-family="Arial, sans-serif" font-size="12" text-anchor="middle" fill="white">PostgreSQL + pgvector</text>
  
  <!-- Cache Layer -->
  <rect x="50" y="400" width="160" height="80" rx="10" fill="#1abc9c" opacity="0.8" />
  <text x="130" y="435" font-family="Arial, sans-serif" font-size="16" font-weight="bold" text-anchor="middle" fill="white">Cache Layer</text>
  <text x="130" y="455" font-family="Arial, sans-serif" font-size="12" text-anchor="middle" fill="white">Redis</text>
  
  <!-- Monitoring -->
  <rect x="600" y="280" width="150" height="130" rx="10" fill="#34495e" opacity="0.8" />
  <text x="675" y="310" font-family="Arial, sans-serif" font-size="16" font-weight="bold" text-anchor="middle" fill="white">Monitoring</text>
  <rect x="620" y="330" width="110" height="30" rx="5" fill="#2c3e50" opacity="0.9" />
  <text x="675" y="350" font-family="Arial, sans-serif" font-size="12" text-anchor="middle" fill="white">Prometheus</text>
  <rect x="620" y="370" width="110" height="30" rx="5" fill="#2c3e50" opacity="0.9" />
  <text x="675" y="390" font-family="Arial, sans-serif" font-size="12" text-anchor="middle" fill="white">Grafana</text>
  
  <!-- Infrastructure -->
  <rect x="310" y="420" width="180" height="120" rx="10" fill="#3498db" opacity="0.8" />
  <text x="400" y="450" font-family="Arial, sans-serif" font-size="16" font-weight="bold" text-anchor="middle" fill="white">Infrastructure</text>
  <rect x="330" y="470" width="60" height="50" rx="5" fill="#2980b9" opacity="0.9" />
  <text x="360" y="495" font-family="Arial, sans-serif" font-size="12" text-anchor="middle" fill="white">Docker</text>
  <rect x="410" y="470" width="60" height="50" rx="5" fill="#2980b9" opacity="0.9" />
  <text x="440" y="495" font-family="Arial, sans-serif" font-size="12" text-anchor="middle" fill="white">K8s</text>
  
  <!-- Connection Lines -->
  <line x1="210" y1="150" x2="310" y2="140" stroke="#95a5a6" stroke-width="2" />
  <line x1="400" y1="180" x2="400" y2="230" stroke="#95a5a6" stroke-width="2" />
  <line x1="490" y1="140" x2="600" y2="165" stroke="#95a5a6" stroke-width="2" />
  <line x1="270" y1="295" x2="210" y2="320" stroke="#95a5a6" stroke-width="2" />
  <line x1="270" y1="330" x2="210" y2="420" stroke="#95a5a6" stroke-width="2" />
  <line x1="530" y1="295" x2="600" y2="345" stroke="#95a5a6" stroke-width="2" />
  
  <!-- Performance Indicators -->
  <rect x="600" y="430" width="150" height="110" rx="10" fill="#27ae60" opacity="0.8" />
  <text x="675" y="460" font-family="Arial, sans-serif" font-size="16" font-weight="bold" text-anchor="middle" fill="white">Performance</text>
  <text x="675" y="485" font-family="Arial, sans-serif" font-size="12" text-anchor="middle" fill="white">Sub-1s Response Time</text>
  <text x="675" y="505" font-family="Arial, sans-serif" font-size="12" text-anchor="middle" fill="white">35K+ Monthly Users</text>
  <text x="675" y="525" font-family="Arial, sans-serif" font-size="12" text-anchor="middle" fill="white">99.7% Uptime</text>
</svg>
